<mxfile host="app.diagrams.net" modified="2021-04-13T16:40:08.204Z" agent="5.0 (Windows NT 10.0; Win64; x64) AppleWebKit/537.36 (KHTML, like Gecko) Chrome/89.0.4389.114 Safari/537.36" etag="VSGZn6K81RHrH_IqqtZn" version="14.5.10" type="github">
  <diagram id="R2lEEEUBdFMjLlhIrx00" name="Page-1">
    <mxGraphModel dx="1422" dy="771" grid="1" gridSize="10" guides="1" tooltips="1" connect="1" arrows="1" fold="1" page="1" pageScale="1" pageWidth="850" pageHeight="1100" math="0" shadow="0" extFonts="Permanent Marker^https://fonts.googleapis.com/css?family=Permanent+Marker">
      <root>
        <mxCell id="0" />
        <mxCell id="1" parent="0" />
        <mxCell id="QywkcoM44KcOYsRS0SZp-1" value="Pass" style="rounded=0;whiteSpace=wrap;html=1;" parent="1" vertex="1">
          <mxGeometry x="210" y="280" width="110" height="50" as="geometry" />
        </mxCell>
        <mxCell id="QywkcoM44KcOYsRS0SZp-2" value="&lt;u&gt;&lt;b&gt;PassID&lt;/b&gt;&lt;/u&gt;" style="ellipse;whiteSpace=wrap;html=1;" parent="1" vertex="1">
          <mxGeometry x="110" y="210" width="80" height="50" as="geometry" />
        </mxCell>
        <mxCell id="QywkcoM44KcOYsRS0SZp-3" value="CompanyID" style="ellipse;whiteSpace=wrap;html=1;" parent="1" vertex="1">
          <mxGeometry x="90" y="280" width="80" height="50" as="geometry" />
        </mxCell>
        <mxCell id="QywkcoM44KcOYsRS0SZp-5" value="ClientID" style="ellipse;whiteSpace=wrap;html=1;" parent="1" vertex="1">
          <mxGeometry x="115" y="350" width="80" height="50" as="geometry" />
        </mxCell>
        <mxCell id="QywkcoM44KcOYsRS0SZp-6" value="Company" style="rounded=0;whiteSpace=wrap;html=1;" parent="1" vertex="1">
          <mxGeometry x="425" y="160" width="110" height="50" as="geometry" />
        </mxCell>
        <mxCell id="QywkcoM44KcOYsRS0SZp-7" value="&lt;b&gt;&lt;u&gt;CompanyID&lt;/u&gt;&lt;/b&gt;" style="ellipse;whiteSpace=wrap;html=1;" parent="1" vertex="1">
          <mxGeometry x="380" y="70" width="80" height="50" as="geometry" />
        </mxCell>
        <mxCell id="QywkcoM44KcOYsRS0SZp-8" value="Client" style="rounded=0;whiteSpace=wrap;html=1;" parent="1" vertex="1">
          <mxGeometry x="530" y="360" width="110" height="50" as="geometry" />
        </mxCell>
        <mxCell id="QywkcoM44KcOYsRS0SZp-9" value="&lt;b&gt;&lt;u&gt;ClientID&lt;br&gt;&lt;/u&gt;&lt;/b&gt;" style="ellipse;whiteSpace=wrap;html=1;" parent="1" vertex="1">
          <mxGeometry x="640" y="280" width="80" height="50" as="geometry" />
        </mxCell>
        <mxCell id="QywkcoM44KcOYsRS0SZp-10" value="UserName&lt;br&gt;&lt;span style=&quot;font-size: 9px&quot;&gt;string&lt;/span&gt;" style="ellipse;whiteSpace=wrap;html=1;" parent="1" vertex="1">
          <mxGeometry x="680" y="360" width="80" height="50" as="geometry" />
        </mxCell>
        <mxCell id="QywkcoM44KcOYsRS0SZp-12" value="Password&lt;br&gt;&lt;span style=&quot;font-size: 9px&quot;&gt;string&lt;/span&gt;" style="ellipse;whiteSpace=wrap;html=1;" parent="1" vertex="1">
          <mxGeometry x="624" y="430" width="96" height="60" as="geometry" />
        </mxCell>
        <mxCell id="QywkcoM44KcOYsRS0SZp-13" value="CompanyName&lt;br&gt;&lt;font style=&quot;font-size: 9px&quot;&gt;string&lt;/font&gt;" style="ellipse;whiteSpace=wrap;html=1;" parent="1" vertex="1">
          <mxGeometry x="270" y="120" width="110" height="60" as="geometry" />
        </mxCell>
        <mxCell id="QywkcoM44KcOYsRS0SZp-14" value="&lt;font style=&quot;font-size: 33px&quot;&gt;Main database&lt;/font&gt;" style="text;html=1;strokeColor=none;fillColor=none;align=center;verticalAlign=middle;whiteSpace=wrap;rounded=0;" parent="1" vertex="1">
          <mxGeometry x="195" y="30" width="460" height="20" as="geometry" />
        </mxCell>
        <mxCell id="QywkcoM44KcOYsRS0SZp-17" value="Passage" style="rounded=0;whiteSpace=wrap;html=1;" parent="1" vertex="1">
          <mxGeometry x="390" y="500" width="110" height="50" as="geometry" />
        </mxCell>
        <mxCell id="QywkcoM44KcOYsRS0SZp-18" value="PassID" style="ellipse;whiteSpace=wrap;html=1;" parent="1" vertex="1">
          <mxGeometry x="360" y="600" width="80" height="50" as="geometry" />
        </mxCell>
        <mxCell id="QywkcoM44KcOYsRS0SZp-19" value="&lt;u&gt;PassageID&lt;/u&gt;" style="ellipse;whiteSpace=wrap;html=1;" parent="1" vertex="1">
          <mxGeometry x="535" y="550" width="80" height="50" as="geometry" />
        </mxCell>
        <mxCell id="QywkcoM44KcOYsRS0SZp-21" value="Time" style="ellipse;whiteSpace=wrap;html=1;" parent="1" vertex="1">
          <mxGeometry x="470" y="600" width="75" height="50" as="geometry" />
        </mxCell>
        <mxCell id="QywkcoM44KcOYsRS0SZp-23" value="ActionType" style="ellipse;whiteSpace=wrap;html=1;" parent="1" vertex="1">
          <mxGeometry x="270" y="560" width="80" height="50" as="geometry" />
        </mxCell>
        <mxCell id="QywkcoM44KcOYsRS0SZp-28" value="" style="edgeStyle=entityRelationEdgeStyle;fontSize=12;html=1;endArrow=none;exitX=1;exitY=0.5;exitDx=0;exitDy=0;entryX=0;entryY=0.25;entryDx=0;entryDy=0;endFill=0;startArrow=ERoneToMany;startFill=0;" parent="1" source="QywkcoM44KcOYsRS0SZp-1" target="QywkcoM44KcOYsRS0SZp-8" edge="1">
          <mxGeometry width="100" height="100" relative="1" as="geometry">
            <mxPoint x="380" y="500" as="sourcePoint" />
            <mxPoint x="480" y="400" as="targetPoint" />
          </mxGeometry>
        </mxCell>
        <mxCell id="QywkcoM44KcOYsRS0SZp-29" value="" style="edgeStyle=entityRelationEdgeStyle;fontSize=12;html=1;endArrow=none;exitX=1;exitY=0.25;exitDx=0;exitDy=0;entryX=0;entryY=0.5;entryDx=0;entryDy=0;endFill=0;startArrow=ERoneToMany;startFill=0;" parent="1" source="QywkcoM44KcOYsRS0SZp-1" target="QywkcoM44KcOYsRS0SZp-6" edge="1">
          <mxGeometry width="100" height="100" relative="1" as="geometry">
            <mxPoint x="310" y="280" as="sourcePoint" />
            <mxPoint x="410" y="180" as="targetPoint" />
          </mxGeometry>
        </mxCell>
        <mxCell id="QywkcoM44KcOYsRS0SZp-32" value="" style="edgeStyle=entityRelationEdgeStyle;fontSize=12;html=1;endArrow=none;entryX=1;entryY=0.75;entryDx=0;entryDy=0;exitX=0;exitY=0.5;exitDx=0;exitDy=0;startArrow=ERmany;startFill=0;endFill=0;" parent="1" source="QywkcoM44KcOYsRS0SZp-17" target="QywkcoM44KcOYsRS0SZp-1" edge="1">
          <mxGeometry width="100" height="100" relative="1" as="geometry">
            <mxPoint x="300" y="470" as="sourcePoint" />
            <mxPoint x="400" y="370" as="targetPoint" />
          </mxGeometry>
        </mxCell>
        <mxCell id="QywkcoM44KcOYsRS0SZp-34" value="" style="endArrow=none;html=1;entryX=1;entryY=0.5;entryDx=0;entryDy=0;exitX=0.25;exitY=0;exitDx=0;exitDy=0;" parent="1" source="QywkcoM44KcOYsRS0SZp-1" target="QywkcoM44KcOYsRS0SZp-2" edge="1">
          <mxGeometry width="50" height="50" relative="1" as="geometry">
            <mxPoint x="250" y="250" as="sourcePoint" />
            <mxPoint x="300" y="200" as="targetPoint" />
          </mxGeometry>
        </mxCell>
        <mxCell id="QywkcoM44KcOYsRS0SZp-35" value="" style="endArrow=none;html=1;entryX=1;entryY=0.5;entryDx=0;entryDy=0;exitX=0;exitY=0.5;exitDx=0;exitDy=0;" parent="1" source="QywkcoM44KcOYsRS0SZp-1" target="QywkcoM44KcOYsRS0SZp-3" edge="1">
          <mxGeometry width="50" height="50" relative="1" as="geometry">
            <mxPoint x="247.5" y="290" as="sourcePoint" />
            <mxPoint x="200" y="245" as="targetPoint" />
          </mxGeometry>
        </mxCell>
        <mxCell id="QywkcoM44KcOYsRS0SZp-37" value="" style="endArrow=none;html=1;entryX=0.25;entryY=1;entryDx=0;entryDy=0;exitX=1;exitY=0.5;exitDx=0;exitDy=0;" parent="1" source="QywkcoM44KcOYsRS0SZp-5" target="QywkcoM44KcOYsRS0SZp-1" edge="1">
          <mxGeometry width="50" height="50" relative="1" as="geometry">
            <mxPoint x="210" y="430" as="sourcePoint" />
            <mxPoint x="260" y="380" as="targetPoint" />
          </mxGeometry>
        </mxCell>
        <mxCell id="QywkcoM44KcOYsRS0SZp-38" value="" style="endArrow=none;html=1;entryX=0;entryY=0;entryDx=0;entryDy=0;exitX=1;exitY=0.5;exitDx=0;exitDy=0;" parent="1" source="QywkcoM44KcOYsRS0SZp-13" target="QywkcoM44KcOYsRS0SZp-6" edge="1">
          <mxGeometry width="50" height="50" relative="1" as="geometry">
            <mxPoint x="205" y="385" as="sourcePoint" />
            <mxPoint x="247.5" y="340" as="targetPoint" />
          </mxGeometry>
        </mxCell>
        <mxCell id="QywkcoM44KcOYsRS0SZp-39" value="" style="endArrow=none;html=1;entryX=0.25;entryY=0;entryDx=0;entryDy=0;exitX=0.5;exitY=1;exitDx=0;exitDy=0;" parent="1" source="QywkcoM44KcOYsRS0SZp-7" target="QywkcoM44KcOYsRS0SZp-6" edge="1">
          <mxGeometry width="50" height="50" relative="1" as="geometry">
            <mxPoint x="389.9999999999984" y="160" as="sourcePoint" />
            <mxPoint x="435" y="170" as="targetPoint" />
          </mxGeometry>
        </mxCell>
        <mxCell id="QywkcoM44KcOYsRS0SZp-40" value="" style="endArrow=none;html=1;entryX=0;entryY=1;entryDx=0;entryDy=0;exitX=0.5;exitY=0;exitDx=0;exitDy=0;" parent="1" source="QywkcoM44KcOYsRS0SZp-8" target="QywkcoM44KcOYsRS0SZp-9" edge="1">
          <mxGeometry width="50" height="50" relative="1" as="geometry">
            <mxPoint x="510" y="530" as="sourcePoint" />
            <mxPoint x="560" y="480" as="targetPoint" />
          </mxGeometry>
        </mxCell>
        <mxCell id="QywkcoM44KcOYsRS0SZp-41" value="" style="endArrow=none;html=1;entryX=0;entryY=0.5;entryDx=0;entryDy=0;exitX=1;exitY=0.5;exitDx=0;exitDy=0;" parent="1" source="QywkcoM44KcOYsRS0SZp-8" target="QywkcoM44KcOYsRS0SZp-10" edge="1">
          <mxGeometry width="50" height="50" relative="1" as="geometry">
            <mxPoint x="595" y="370" as="sourcePoint" />
            <mxPoint x="661.4722622845131" y="332.52418173951344" as="targetPoint" />
          </mxGeometry>
        </mxCell>
        <mxCell id="QywkcoM44KcOYsRS0SZp-42" value="" style="endArrow=none;html=1;entryX=0;entryY=0;entryDx=0;entryDy=0;exitX=0.5;exitY=1;exitDx=0;exitDy=0;" parent="1" source="QywkcoM44KcOYsRS0SZp-8" target="QywkcoM44KcOYsRS0SZp-12" edge="1">
          <mxGeometry width="50" height="50" relative="1" as="geometry">
            <mxPoint x="650" y="395" as="sourcePoint" />
            <mxPoint x="690" y="395" as="targetPoint" />
          </mxGeometry>
        </mxCell>
        <mxCell id="QywkcoM44KcOYsRS0SZp-43" value="" style="endArrow=none;html=1;entryX=0.25;entryY=1;entryDx=0;entryDy=0;exitX=1;exitY=0.5;exitDx=0;exitDy=0;" parent="1" source="QywkcoM44KcOYsRS0SZp-23" target="QywkcoM44KcOYsRS0SZp-17" edge="1">
          <mxGeometry width="50" height="50" relative="1" as="geometry">
            <mxPoint x="270" y="640" as="sourcePoint" />
            <mxPoint x="320" y="590" as="targetPoint" />
          </mxGeometry>
        </mxCell>
        <mxCell id="QywkcoM44KcOYsRS0SZp-45" value="" style="endArrow=none;html=1;entryX=0.5;entryY=1;entryDx=0;entryDy=0;exitX=0.5;exitY=0;exitDx=0;exitDy=0;" parent="1" source="QywkcoM44KcOYsRS0SZp-18" target="QywkcoM44KcOYsRS0SZp-17" edge="1">
          <mxGeometry width="50" height="50" relative="1" as="geometry">
            <mxPoint x="420" y="620" as="sourcePoint" />
            <mxPoint x="470" y="570" as="targetPoint" />
          </mxGeometry>
        </mxCell>
        <mxCell id="QywkcoM44KcOYsRS0SZp-46" value="" style="endArrow=none;html=1;entryX=0.75;entryY=1;entryDx=0;entryDy=0;exitX=0.5;exitY=0;exitDx=0;exitDy=0;" parent="1" source="QywkcoM44KcOYsRS0SZp-21" target="QywkcoM44KcOYsRS0SZp-17" edge="1">
          <mxGeometry width="50" height="50" relative="1" as="geometry">
            <mxPoint x="410" y="610" as="sourcePoint" />
            <mxPoint x="455" y="560" as="targetPoint" />
          </mxGeometry>
        </mxCell>
        <mxCell id="QywkcoM44KcOYsRS0SZp-47" value="" style="endArrow=none;html=1;entryX=1;entryY=0.75;entryDx=0;entryDy=0;exitX=0.5;exitY=0;exitDx=0;exitDy=0;" parent="1" source="QywkcoM44KcOYsRS0SZp-19" target="QywkcoM44KcOYsRS0SZp-17" edge="1">
          <mxGeometry width="50" height="50" relative="1" as="geometry">
            <mxPoint x="517.5" y="610" as="sourcePoint" />
            <mxPoint x="482.5" y="560" as="targetPoint" />
          </mxGeometry>
        </mxCell>
        <mxCell id="QywkcoM44KcOYsRS0SZp-49" value="PrivateKey&lt;br&gt;&lt;span style=&quot;font-size: 9px&quot;&gt;string&lt;/span&gt;" style="ellipse;whiteSpace=wrap;html=1;" parent="1" vertex="1">
          <mxGeometry x="210" y="200" width="80" height="50" as="geometry" />
        </mxCell>
        <mxCell id="QywkcoM44KcOYsRS0SZp-50" value="" style="endArrow=none;html=1;entryX=0.5;entryY=1;entryDx=0;entryDy=0;exitX=0.5;exitY=0;exitDx=0;exitDy=0;" parent="1" source="QywkcoM44KcOYsRS0SZp-1" target="QywkcoM44KcOYsRS0SZp-49" edge="1">
          <mxGeometry width="50" height="50" relative="1" as="geometry">
            <mxPoint x="247.5" y="290" as="sourcePoint" />
            <mxPoint x="200" y="245.0000000000001" as="targetPoint" />
          </mxGeometry>
        </mxCell>
        <mxCell id="QywkcoM44KcOYsRS0SZp-51" value="1" style="text;html=1;strokeColor=none;fillColor=none;align=center;verticalAlign=middle;whiteSpace=wrap;rounded=0;" parent="1" vertex="1">
          <mxGeometry x="320" y="320" width="10" height="20" as="geometry" />
        </mxCell>
        <mxCell id="QywkcoM44KcOYsRS0SZp-52" value="1" style="text;html=1;strokeColor=none;fillColor=none;align=center;verticalAlign=middle;whiteSpace=wrap;rounded=0;" parent="1" vertex="1">
          <mxGeometry x="415" y="190" width="10" height="20" as="geometry" />
        </mxCell>
        <mxCell id="QywkcoM44KcOYsRS0SZp-54" value="*" style="text;html=1;strokeColor=none;fillColor=none;align=center;verticalAlign=middle;whiteSpace=wrap;rounded=0;" parent="1" vertex="1">
          <mxGeometry x="340" y="295" width="10" height="20" as="geometry" />
        </mxCell>
        <mxCell id="QywkcoM44KcOYsRS0SZp-55" value="1" style="text;html=1;strokeColor=none;fillColor=none;align=center;verticalAlign=middle;whiteSpace=wrap;rounded=0;" parent="1" vertex="1">
          <mxGeometry x="520" y="350" width="10" height="20" as="geometry" />
        </mxCell>
        <mxCell id="QywkcoM44KcOYsRS0SZp-56" value="*" style="text;html=1;strokeColor=none;fillColor=none;align=center;verticalAlign=middle;whiteSpace=wrap;rounded=0;" parent="1" vertex="1">
          <mxGeometry x="320" y="270" width="10" height="20" as="geometry" />
        </mxCell>
        <mxCell id="QywkcoM44KcOYsRS0SZp-57" value="*" style="text;html=1;strokeColor=none;fillColor=none;align=center;verticalAlign=middle;whiteSpace=wrap;rounded=0;" parent="1" vertex="1">
          <mxGeometry x="370" y="500" width="10" height="20" as="geometry" />
        </mxCell>
      </root>
    </mxGraphModel>
  </diagram>
</mxfile>
